;TYPE=PLATED
;Layer: PTH_Through
;EasyEDA Pro v2.2.32.3, 2024-10-26 20:26:31
;Gerber Generator version 0.3
M48
METRIC,LZ,000.00000
;Hole size 1 = 0.30500 METRIC
T01C0.30500
;Hole size 2 = 0.60000 METRIC
T02C0.60000
;Hole size 3 = 1.00000 METRIC
T03C1.00000
;Hole size 4 = 1.02001 METRIC
T04C1.02001
%
G05
G90
T01
X47.89405Y25.24055
X32.65405Y45.56055
X32.65405Y50.64055
X32.65405Y55.72055
X32.65405Y60.80055
X37.73405Y20.16055
X37.73405Y25.24055
X37.73405Y45.56055
X37.73405Y50.64055
X37.73405Y55.72055
X37.73405Y60.80055
X42.81405Y20.16055
X42.81405Y25.24055
X42.81405Y45.56055
X42.81405Y50.64055
X42.81405Y55.72055
X42.81405Y60.80055
X47.89405Y35.40055
X47.89405Y40.48055
X47.89405Y50.64055
X47.89405Y55.72055
X47.89405Y60.80055
X52.97405Y20.16055
X52.97405Y50.64055
X52.97405Y55.72055
X52.97405Y60.80055
X58.05405Y25.24055
X58.05405Y35.40055
X58.05405Y40.48055
X58.05405Y50.64055
X58.05405Y55.72055
X58.05405Y60.80055
X63.13405Y35.40055
X63.13405Y40.48055
X63.13405Y50.64055
X63.13405Y55.72055
X68.21405Y35.40055
X68.21405Y40.48055
X68.21405Y45.56055
X68.21405Y50.64055
X68.21405Y55.72055
X73.29405Y35.40055
X73.29405Y40.48055
X73.29405Y50.64055
X73.29405Y55.72055
X73.29405Y60.80055
X78.37405Y20.16055
X78.37405Y30.32055
X78.37405Y35.40055
X78.37405Y40.48055
X78.37405Y45.56055
X78.37405Y55.72055
X83.45405Y35.40055
X83.45405Y55.72055
X88.53405Y20.16055
X88.53405Y25.24055
X88.53405Y30.32055
X88.53405Y35.40055
X88.53405Y45.56055
X88.53405Y55.72055
X93.61405Y45.56055
X93.61405Y50.64055
X93.61405Y55.72055
X93.61405Y60.80055
X98.69405Y60.80055
X103.77405Y30.32055
X103.77405Y35.40055
X103.77405Y40.48055
X103.77405Y45.56055
X103.77405Y55.72055
T02
X72.136Y29.591
X84.455Y28.84621
X98.171Y29.464
X51.63592Y44.464
X88.265Y59.563
T03
X73.406Y23.495
X75.946Y23.495
X81.153Y21.463
X83.693Y21.463
X88.138Y21.463
X90.678Y21.463
X68.453Y18.161
X65.913Y18.161
T04
X78.232Y18.161
X75.692Y18.161
X73.152Y18.161
M30