G04 Layer: TopSilkscreenLayer*
G04 EasyEDA Pro v2.2.32.3, 2024-10-26 20:26:31*
G04 Gerber Generator version 0.3*
G04 Scale: 100 percent, Rotated: No, Reflected: No*
G04 Dimensions in millimeters*
G04 Leading zeros omitted, absolute positions, 3 integers and 5 decimals*
%FSLAX35Y35*%
%MOMM*%
%ADD10C,0.203*%
%ADD11C,0.1524*%
%ADD12C,0.09906*%
%ADD13C,0.2032*%
%ADD14C,0.254*%
%ADD15C,0.1*%
%ADD16C,1.0061*%
%ADD17C,1.00076*%
G75*


G04 Text Start*
G54D10*
G01X7330440Y1630680D02*
G01X7312660Y1648460D01*
G01X7294880Y1657350D01*
G01X7268210Y1657350D01*
G01X7250430Y1648460D01*
G01X7232650Y1630680D01*
G01X7223760Y1604010D01*
G01X7223760Y1586230D01*
G01X7232650Y1559560D01*
G01X7250430Y1541780D01*
G01X7268210Y1532890D01*
G01X7294880Y1532890D01*
G01X7312660Y1541780D01*
G01X7330440Y1559560D01*
G01X7515860Y1633220D02*
G01X7533640Y1642110D01*
G01X7560310Y1668780D01*
G01X7560310Y1482090D01*
G01X7766050Y1637030D02*
G01X7766050Y1645920D01*
G01X7774940Y1663700D01*
G01X7783830Y1672590D01*
G01X7801610Y1681480D01*
G01X7837170Y1681480D01*
G01X7854950Y1672590D01*
G01X7863840Y1663700D01*
G01X7872730Y1645920D01*
G01X7872730Y1628140D01*
G01X7863840Y1610360D01*
G01X7846060Y1583690D01*
G01X7757160Y1494790D01*
G01X7881620Y1494790D01*
G01X8595360Y1811020D02*
G01X8613140Y1819910D01*
G01X8639810Y1846580D01*
G01X8639810Y1659890D01*
G01X8711692Y1802130D02*
G01X8711692Y1811020D01*
G01X8720582Y1828800D01*
G01X8729472Y1837690D01*
G01X8747252Y1846580D01*
G01X8782812Y1846580D01*
G01X8800592Y1837690D01*
G01X8809482Y1828800D01*
G01X8818372Y1811020D01*
G01X8818372Y1793240D01*
G01X8809482Y1775460D01*
G01X8791702Y1748790D01*
G01X8702802Y1659890D01*
G01X8827262Y1659890D01*
G01X8270240Y2595880D02*
G01X8181340Y2595880D01*
G01X8172450Y2515870D01*
G01X8181340Y2524760D01*
G01X8208010Y2533650D01*
G01X8234680Y2533650D01*
G01X8261350Y2524760D01*
G01X8279130Y2506980D01*
G01X8288020Y2480310D01*
G01X8288020Y2462530D01*
G01X8279130Y2435860D01*
G01X8261350Y2418080D01*
G01X8234680Y2409190D01*
G01X8208010Y2409190D01*
G01X8181340Y2418080D01*
G01X8172450Y2426970D01*
G01X8163560Y2444750D01*
G01X6995160Y2686050D02*
G01X7048500Y2561590D01*
G01X7101840Y2686050D02*
G01X7048500Y2561590D01*
G01X7271512Y2659380D02*
G01X7253732Y2677160D01*
G01X7235952Y2686050D01*
G01X7209282Y2686050D01*
G01X7191502Y2677160D01*
G01X7173722Y2659380D01*
G01X7164832Y2632710D01*
G01X7164832Y2614930D01*
G01X7173722Y2588260D01*
G01X7191502Y2570480D01*
G01X7209282Y2561590D01*
G01X7235952Y2561590D01*
G01X7253732Y2570480D01*
G01X7271512Y2588260D01*
G01X7441184Y2659380D02*
G01X7423404Y2677160D01*
G01X7405624Y2686050D01*
G01X7378954Y2686050D01*
G01X7361174Y2677160D01*
G01X7343394Y2659380D01*
G01X7334504Y2632710D01*
G01X7334504Y2614930D01*
G01X7343394Y2588260D01*
G01X7361174Y2570480D01*
G01X7378954Y2561590D01*
G01X7405624Y2561590D01*
G01X7423404Y2570480D01*
G01X7441184Y2588260D01*
G54D11*
G01X7030720Y2418334D02*
G01X7030720Y2353310D01*
G01X7074154Y2418334D02*
G01X7074154Y2353310D01*
G01X7030720Y2387346D02*
G01X7074154Y2387346D01*
G01X7104380Y2405888D02*
G01X7110476Y2409190D01*
G01X7119620Y2418334D01*
G01X7119620Y2353310D01*
G01X7949209Y2405939D02*
G01X7949209Y2340915D01*
G01X7992643Y2405939D02*
G01X7992643Y2340915D01*
G01X7949209Y2374951D02*
G01X7992643Y2374951D01*
G01X8025917Y2390445D02*
G01X8025917Y2393493D01*
G01X8028965Y2399843D01*
G01X8032013Y2402891D01*
G01X8038109Y2405939D01*
G01X8050555Y2405939D01*
G01X8056905Y2402891D01*
G01X8059953Y2399843D01*
G01X8063001Y2393493D01*
G01X8063001Y2387397D01*
G01X8059953Y2381301D01*
G01X8053603Y2371903D01*
G01X8022869Y2340915D01*
G01X8066049Y2340915D01*
G01X8647709Y2405939D02*
G01X8647709Y2340915D01*
G01X8691143Y2405939D02*
G01X8691143Y2340915D01*
G01X8647709Y2374951D02*
G01X8691143Y2374951D01*
G01X8727465Y2405939D02*
G01X8761501Y2405939D01*
G01X8742959Y2381301D01*
G01X8752103Y2381301D01*
G01X8758453Y2378253D01*
G01X8761501Y2374951D01*
G01X8764549Y2365807D01*
G01X8764549Y2359457D01*
G01X8761501Y2350313D01*
G01X8755405Y2343963D01*
G01X8746007Y2340915D01*
G01X8736609Y2340915D01*
G01X8727465Y2343963D01*
G01X8724417Y2347265D01*
G01X8721369Y2353361D01*
G01X7033006Y1658620D02*
G01X7033006Y1593596D01*
G01X7076440Y1658620D02*
G01X7076440Y1593596D01*
G01X7033006Y1627632D02*
G01X7076440Y1627632D01*
G01X7137400Y1658620D02*
G01X7106666Y1615440D01*
G01X7152894Y1615440D01*
G01X7137400Y1658620D02*
G01X7137400Y1593596D01*
G01X7030720Y1884934D02*
G01X7030720Y1838452D01*
G01X7033768Y1829308D01*
G01X7040118Y1822958D01*
G01X7049262Y1819910D01*
G01X7055612Y1819910D01*
G01X7064756Y1822958D01*
G01X7070852Y1829308D01*
G01X7074154Y1838452D01*
G01X7074154Y1884934D01*
G01X7104380Y1872488D02*
G01X7110476Y1875790D01*
G01X7119620Y1884934D01*
G01X7119620Y1819910D01*
G54D12*
G01X6932930Y5989320D02*
G01X6955282Y5930138D01*
G01X6977888Y5989320D02*
G01X6955282Y5930138D01*
G01X7018274Y5989320D02*
G01X7012686Y5986526D01*
G01X7006844Y5980938D01*
G01X7004050Y5975350D01*
G01X7001256Y5966714D01*
G01X7001256Y5952744D01*
G01X7004050Y5944362D01*
G01X7006844Y5938520D01*
G01X7012686Y5932932D01*
G01X7018274Y5930138D01*
G01X7029450Y5930138D01*
G01X7035038Y5932932D01*
G01X7040880Y5938520D01*
G01X7043674Y5944362D01*
G01X7046468Y5952744D01*
G01X7046468Y5966714D01*
G01X7043674Y5975350D01*
G01X7040880Y5980938D01*
G01X7035038Y5986526D01*
G01X7029450Y5989320D01*
G01X7018274Y5989320D01*
G01X7095236Y5980938D02*
G01X7095236Y5930138D01*
G01X7069836Y5955538D02*
G01X7120636Y5955538D01*
G01X7529830Y5989320D02*
G01X7552182Y5930138D01*
G01X7574788Y5989320D02*
G01X7552182Y5930138D01*
G01X7598156Y5989320D02*
G01X7598156Y5930138D01*
G01X7621778Y5989320D02*
G01X7621778Y5930138D01*
G01X7621778Y5989320D02*
G01X7661148Y5930138D01*
G01X7661148Y5989320D02*
G01X7661148Y5930138D01*
G01X7709916Y5980938D02*
G01X7709916Y5930138D01*
G01X7684516Y5955538D02*
G01X7735316Y5955538D01*
G54D13*
G01X7109460Y5669280D02*
G01X7109460Y5549138D01*
G01X7109460Y5669280D02*
G01X7149592Y5669280D01*
G01X7166610Y5663438D01*
G01X7178040Y5652008D01*
G01X7183882Y5640578D01*
G01X7189470Y5623560D01*
G01X7189470Y5594858D01*
G01X7183882Y5577840D01*
G01X7178040Y5566410D01*
G01X7166610Y5554980D01*
G01X7149592Y5549138D01*
G01X7109460Y5549138D01*
G01X7237222Y5669280D02*
G01X7237222Y5549138D01*
G01X7237222Y5669280D02*
G01X7282942Y5549138D01*
G01X7328662Y5669280D02*
G01X7282942Y5549138D01*
G01X7328662Y5669280D02*
G01X7328662Y5549138D01*
G01X7376414Y5646420D02*
G01X7387844Y5652008D01*
G01X7405116Y5669280D01*
G01X7405116Y5549138D01*
G01X7464298Y5669280D02*
G01X7527290Y5669280D01*
G01X7493000Y5623560D01*
G01X7510018Y5623560D01*
G01X7521448Y5617718D01*
G01X7527290Y5612130D01*
G01X7532878Y5594858D01*
G01X7532878Y5583428D01*
G01X7527290Y5566410D01*
G01X7515860Y5554980D01*
G01X7498588Y5549138D01*
G01X7481570Y5549138D01*
G01X7464298Y5554980D01*
G01X7458710Y5560568D01*
G01X7452868Y5571998D01*
G54D12*
G01X6932930Y5227320D02*
G01X6955282Y5168138D01*
G01X6977888Y5227320D02*
G01X6955282Y5168138D01*
G01X7018274Y5227320D02*
G01X7012686Y5224526D01*
G01X7006844Y5218938D01*
G01X7004050Y5213350D01*
G01X7001256Y5204714D01*
G01X7001256Y5190744D01*
G01X7004050Y5182362D01*
G01X7006844Y5176520D01*
G01X7012686Y5170932D01*
G01X7018274Y5168138D01*
G01X7029450Y5168138D01*
G01X7035038Y5170932D01*
G01X7040880Y5176520D01*
G01X7043674Y5182362D01*
G01X7046468Y5190744D01*
G01X7046468Y5204714D01*
G01X7043674Y5213350D01*
G01X7040880Y5218938D01*
G01X7035038Y5224526D01*
G01X7029450Y5227320D01*
G01X7018274Y5227320D01*
G01X7069836Y5193538D02*
G01X7120636Y5193538D01*
G01X7529830Y5227320D02*
G01X7552182Y5168138D01*
G01X7574788Y5227320D02*
G01X7552182Y5168138D01*
G01X7598156Y5227320D02*
G01X7598156Y5168138D01*
G01X7621778Y5227320D02*
G01X7621778Y5168138D01*
G01X7621778Y5227320D02*
G01X7661148Y5168138D01*
G01X7661148Y5227320D02*
G01X7661148Y5168138D01*
G01X7684516Y5193538D02*
G01X7735316Y5193538D01*
G54D11*
G01X7242404Y5905437D02*
G01X7211416Y5905437D01*
G01X7208368Y5877751D01*
G01X7211416Y5880799D01*
G01X7220814Y5883847D01*
G01X7230212Y5883847D01*
G01X7239356Y5880799D01*
G01X7245452Y5874449D01*
G01X7248754Y5865305D01*
G01X7248754Y5858955D01*
G01X7245452Y5849811D01*
G01X7239356Y5843461D01*
G01X7230212Y5840413D01*
G01X7220814Y5840413D01*
G01X7211416Y5843461D01*
G01X7208368Y5846763D01*
G01X7205320Y5852859D01*
G01X7278980Y5883847D02*
G01X7297522Y5840413D01*
G01X7316064Y5883847D02*
G01X7297522Y5840413D01*
G54D12*
G01X8465820Y4166870D02*
G01X8406638Y4144518D01*
G01X8465820Y4121912D02*
G01X8406638Y4144518D01*
G01X8465820Y4081526D02*
G01X8463026Y4087114D01*
G01X8457438Y4092956D01*
G01X8451850Y4095750D01*
G01X8443214Y4098544D01*
G01X8429244Y4098544D01*
G01X8420862Y4095750D01*
G01X8415020Y4092956D01*
G01X8409432Y4087114D01*
G01X8406638Y4081526D01*
G01X8406638Y4070350D01*
G01X8409432Y4064762D01*
G01X8415020Y4058920D01*
G01X8420862Y4056126D01*
G01X8429244Y4053332D01*
G01X8443214Y4053332D01*
G01X8451850Y4056126D01*
G01X8457438Y4058920D01*
G01X8463026Y4064762D01*
G01X8465820Y4070350D01*
G01X8465820Y4081526D01*
G01X8457438Y4004564D02*
G01X8406638Y4004564D01*
G01X8432038Y4029964D02*
G01X8432038Y3979164D01*
G01X8465820Y3569970D02*
G01X8406638Y3547618D01*
G01X8465820Y3525012D02*
G01X8406638Y3547618D01*
G01X8465820Y3501644D02*
G01X8406638Y3501644D01*
G01X8465820Y3478022D02*
G01X8406638Y3478022D01*
G01X8465820Y3478022D02*
G01X8406638Y3438652D01*
G01X8465820Y3438652D02*
G01X8406638Y3438652D01*
G01X8457438Y3389884D02*
G01X8406638Y3389884D01*
G01X8432038Y3415284D02*
G01X8432038Y3364484D01*
G54D13*
G01X8145780Y3990340D02*
G01X8025638Y3990340D01*
G01X8145780Y3990340D02*
G01X8145780Y3950208D01*
G01X8139938Y3933190D01*
G01X8128508Y3921760D01*
G01X8117078Y3915918D01*
G01X8100060Y3910330D01*
G01X8071358Y3910330D01*
G01X8054340Y3915918D01*
G01X8042910Y3921760D01*
G01X8031480Y3933190D01*
G01X8025638Y3950208D01*
G01X8025638Y3990340D01*
G01X8145780Y3862578D02*
G01X8025638Y3862578D01*
G01X8145780Y3862578D02*
G01X8025638Y3816858D01*
G01X8145780Y3771138D02*
G01X8025638Y3816858D01*
G01X8145780Y3771138D02*
G01X8025638Y3771138D01*
G01X8122920Y3723386D02*
G01X8128508Y3711956D01*
G01X8145780Y3694684D01*
G01X8025638Y3694684D01*
G01X8145780Y3635502D02*
G01X8145780Y3572510D01*
G01X8100060Y3606800D01*
G01X8100060Y3589782D01*
G01X8094218Y3578352D01*
G01X8088630Y3572510D01*
G01X8071358Y3566922D01*
G01X8059928Y3566922D01*
G01X8042910Y3572510D01*
G01X8031480Y3583940D01*
G01X8025638Y3601212D01*
G01X8025638Y3618230D01*
G01X8031480Y3635502D01*
G01X8037068Y3641090D01*
G01X8048498Y3646932D01*
G54D12*
G01X7703820Y4166870D02*
G01X7644638Y4144518D01*
G01X7703820Y4121912D02*
G01X7644638Y4144518D01*
G01X7703820Y4081526D02*
G01X7701026Y4087114D01*
G01X7695438Y4092956D01*
G01X7689850Y4095750D01*
G01X7681214Y4098544D01*
G01X7667244Y4098544D01*
G01X7658862Y4095750D01*
G01X7653020Y4092956D01*
G01X7647432Y4087114D01*
G01X7644638Y4081526D01*
G01X7644638Y4070350D01*
G01X7647432Y4064762D01*
G01X7653020Y4058920D01*
G01X7658862Y4056126D01*
G01X7667244Y4053332D01*
G01X7681214Y4053332D01*
G01X7689850Y4056126D01*
G01X7695438Y4058920D01*
G01X7701026Y4064762D01*
G01X7703820Y4070350D01*
G01X7703820Y4081526D01*
G01X7670038Y4029964D02*
G01X7670038Y3979164D01*
G01X7703820Y3569970D02*
G01X7644638Y3547618D01*
G01X7703820Y3525012D02*
G01X7644638Y3547618D01*
G01X7703820Y3501644D02*
G01X7644638Y3501644D01*
G01X7703820Y3478022D02*
G01X7644638Y3478022D01*
G01X7703820Y3478022D02*
G01X7644638Y3438652D01*
G01X7703820Y3438652D02*
G01X7644638Y3438652D01*
G01X7670038Y3415284D02*
G01X7670038Y3364484D01*
G54D11*
G01X7741920Y3879088D02*
G01X7748016Y3882390D01*
G01X7757414Y3891534D01*
G01X7757414Y3826510D01*
G01X7790688Y3876040D02*
G01X7790688Y3879088D01*
G01X7793736Y3885438D01*
G01X7796784Y3888486D01*
G01X7802880Y3891534D01*
G01X7815326Y3891534D01*
G01X7821676Y3888486D01*
G01X7824724Y3885438D01*
G01X7827772Y3879088D01*
G01X7827772Y3872992D01*
G01X7824724Y3866896D01*
G01X7818374Y3857498D01*
G01X7787640Y3826510D01*
G01X7830820Y3826510D01*
G01X7861046Y3869944D02*
G01X7879588Y3826510D01*
G01X7898130Y3869944D02*
G01X7879588Y3826510D01*
G01X5219192Y3459734D02*
G01X5219192Y3413252D01*
G01X5222240Y3404108D01*
G01X5228590Y3397758D01*
G01X5237734Y3394710D01*
G01X5244084Y3394710D01*
G01X5253228Y3397758D01*
G01X5259324Y3404108D01*
G01X5262626Y3413252D01*
G01X5262626Y3459734D01*
G01X5323586Y3459734D02*
G01X5292852Y3416554D01*
G01X5339080Y3416554D01*
G01X5323586Y3459734D02*
G01X5323586Y3394710D01*
G01X6463030Y3349244D02*
G01X6463030Y3302762D01*
G01X6466078Y3293618D01*
G01X6472428Y3287268D01*
G01X6481572Y3284220D01*
G01X6487922Y3284220D01*
G01X6497066Y3287268D01*
G01X6503162Y3293618D01*
G01X6506464Y3302762D01*
G01X6506464Y3349244D01*
G01X6573774Y3349244D02*
G01X6542786Y3349244D01*
G01X6539738Y3321558D01*
G01X6542786Y3324606D01*
G01X6551930Y3327654D01*
G01X6561328Y3327654D01*
G01X6570726Y3324606D01*
G01X6576822Y3318256D01*
G01X6579870Y3309112D01*
G01X6579870Y3302762D01*
G01X6576822Y3293618D01*
G01X6570726Y3287268D01*
G01X6561328Y3284220D01*
G01X6551930Y3284220D01*
G01X6542786Y3287268D01*
G01X6539738Y3290570D01*
G01X6536690Y3296666D01*
G01X5491020Y2131985D02*
G01X5491020Y2085503D01*
G01X5494068Y2076359D01*
G01X5500418Y2070009D01*
G01X5509562Y2066961D01*
G01X5515912Y2066961D01*
G01X5525056Y2070009D01*
G01X5531152Y2076359D01*
G01X5534454Y2085503D01*
G01X5534454Y2131985D01*
G01X5601764Y2122841D02*
G01X5598716Y2128937D01*
G01X5589318Y2131985D01*
G01X5583222Y2131985D01*
G01X5573824Y2128937D01*
G01X5567728Y2119539D01*
G01X5564680Y2104299D01*
G01X5564680Y2088805D01*
G01X5567728Y2076359D01*
G01X5573824Y2070009D01*
G01X5583222Y2066961D01*
G01X5586270Y2066961D01*
G01X5595414Y2070009D01*
G01X5601764Y2076359D01*
G01X5604812Y2085503D01*
G01X5604812Y2088805D01*
G01X5601764Y2097949D01*
G01X5595414Y2104299D01*
G01X5586270Y2107347D01*
G01X5583222Y2107347D01*
G01X5573824Y2104299D01*
G01X5567728Y2097949D01*
G01X5564680Y2088805D01*
G01X4414520Y2291334D02*
G01X4414520Y2244852D01*
G01X4417568Y2235708D01*
G01X4423918Y2229358D01*
G01X4433062Y2226310D01*
G01X4439412Y2226310D01*
G01X4448556Y2229358D01*
G01X4454652Y2235708D01*
G01X4457954Y2244852D01*
G01X4457954Y2291334D01*
G01X4531360Y2291334D02*
G01X4500372Y2226310D01*
G01X4488180Y2291334D02*
G01X4531360Y2291334D01*
G01X6412230Y2358644D02*
G01X6412230Y2312162D01*
G01X6415278Y2303018D01*
G01X6421628Y2296668D01*
G01X6430772Y2293620D01*
G01X6437122Y2293620D01*
G01X6446266Y2296668D01*
G01X6452362Y2303018D01*
G01X6455664Y2312162D01*
G01X6455664Y2358644D01*
G01X6501130Y2358644D02*
G01X6491986Y2355596D01*
G01X6488938Y2349500D01*
G01X6488938Y2343150D01*
G01X6491986Y2337054D01*
G01X6498082Y2334006D01*
G01X6510528Y2330958D01*
G01X6519926Y2327656D01*
G01X6526022Y2321560D01*
G01X6529070Y2315464D01*
G01X6529070Y2306066D01*
G01X6526022Y2299970D01*
G01X6522974Y2296668D01*
G01X6513576Y2293620D01*
G01X6501130Y2293620D01*
G01X6491986Y2296668D01*
G01X6488938Y2299970D01*
G01X6485890Y2306066D01*
G01X6485890Y2315464D01*
G01X6488938Y2321560D01*
G01X6495034Y2327656D01*
G01X6504432Y2330958D01*
G01X6516624Y2334006D01*
G01X6522974Y2337054D01*
G01X6526022Y2343150D01*
G01X6526022Y2349500D01*
G01X6522974Y2355596D01*
G01X6513576Y2358644D01*
G01X6501130Y2358644D01*
G54D12*
G01X9168130Y5989320D02*
G01X9190482Y5930138D01*
G01X9213088Y5989320D02*
G01X9190482Y5930138D01*
G01X9253474Y5989320D02*
G01X9247886Y5986526D01*
G01X9242044Y5980938D01*
G01X9239250Y5975350D01*
G01X9236456Y5966714D01*
G01X9236456Y5952744D01*
G01X9239250Y5944362D01*
G01X9242044Y5938520D01*
G01X9247886Y5932932D01*
G01X9253474Y5930138D01*
G01X9264650Y5930138D01*
G01X9270238Y5932932D01*
G01X9276080Y5938520D01*
G01X9278874Y5944362D01*
G01X9281668Y5952744D01*
G01X9281668Y5966714D01*
G01X9278874Y5975350D01*
G01X9276080Y5980938D01*
G01X9270238Y5986526D01*
G01X9264650Y5989320D01*
G01X9253474Y5989320D01*
G01X9330436Y5980938D02*
G01X9330436Y5930138D01*
G01X9305036Y5955538D02*
G01X9355836Y5955538D01*
G01X9765030Y5989320D02*
G01X9787382Y5930138D01*
G01X9809988Y5989320D02*
G01X9787382Y5930138D01*
G01X9833356Y5989320D02*
G01X9833356Y5930138D01*
G01X9856978Y5989320D02*
G01X9856978Y5930138D01*
G01X9856978Y5989320D02*
G01X9896348Y5930138D01*
G01X9896348Y5989320D02*
G01X9896348Y5930138D01*
G01X9945116Y5980938D02*
G01X9945116Y5930138D01*
G01X9919716Y5955538D02*
G01X9970516Y5955538D01*
G54D13*
G01X9344660Y5669280D02*
G01X9344660Y5549138D01*
G01X9344660Y5669280D02*
G01X9384792Y5669280D01*
G01X9401810Y5663438D01*
G01X9413240Y5652008D01*
G01X9419082Y5640578D01*
G01X9424670Y5623560D01*
G01X9424670Y5594858D01*
G01X9419082Y5577840D01*
G01X9413240Y5566410D01*
G01X9401810Y5554980D01*
G01X9384792Y5549138D01*
G01X9344660Y5549138D01*
G01X9472422Y5669280D02*
G01X9472422Y5549138D01*
G01X9472422Y5669280D02*
G01X9518142Y5549138D01*
G01X9563862Y5669280D02*
G01X9518142Y5549138D01*
G01X9563862Y5669280D02*
G01X9563862Y5549138D01*
G01X9611614Y5646420D02*
G01X9623044Y5652008D01*
G01X9640316Y5669280D01*
G01X9640316Y5549138D01*
G01X9699498Y5669280D02*
G01X9762490Y5669280D01*
G01X9728200Y5623560D01*
G01X9745218Y5623560D01*
G01X9756648Y5617718D01*
G01X9762490Y5612130D01*
G01X9768078Y5594858D01*
G01X9768078Y5583428D01*
G01X9762490Y5566410D01*
G01X9751060Y5554980D01*
G01X9733788Y5549138D01*
G01X9716770Y5549138D01*
G01X9699498Y5554980D01*
G01X9693910Y5560568D01*
G01X9688068Y5571998D01*
G54D12*
G01X9168130Y5227320D02*
G01X9190482Y5168138D01*
G01X9213088Y5227320D02*
G01X9190482Y5168138D01*
G01X9253474Y5227320D02*
G01X9247886Y5224526D01*
G01X9242044Y5218938D01*
G01X9239250Y5213350D01*
G01X9236456Y5204714D01*
G01X9236456Y5190744D01*
G01X9239250Y5182362D01*
G01X9242044Y5176520D01*
G01X9247886Y5170932D01*
G01X9253474Y5168138D01*
G01X9264650Y5168138D01*
G01X9270238Y5170932D01*
G01X9276080Y5176520D01*
G01X9278874Y5182362D01*
G01X9281668Y5190744D01*
G01X9281668Y5204714D01*
G01X9278874Y5213350D01*
G01X9276080Y5218938D01*
G01X9270238Y5224526D01*
G01X9264650Y5227320D01*
G01X9253474Y5227320D01*
G01X9305036Y5193538D02*
G01X9355836Y5193538D01*
G01X9765030Y5227320D02*
G01X9787382Y5168138D01*
G01X9809988Y5227320D02*
G01X9787382Y5168138D01*
G01X9833356Y5227320D02*
G01X9833356Y5168138D01*
G01X9856978Y5227320D02*
G01X9856978Y5168138D01*
G01X9856978Y5227320D02*
G01X9896348Y5168138D01*
G01X9896348Y5227320D02*
G01X9896348Y5168138D01*
G01X9919716Y5193538D02*
G01X9970516Y5193538D01*
G54D11*
G01X9531604Y5860034D02*
G01X9500616Y5860034D01*
G01X9497568Y5832348D01*
G01X9500616Y5835396D01*
G01X9510014Y5838444D01*
G01X9519412Y5838444D01*
G01X9528556Y5835396D01*
G01X9534652Y5829046D01*
G01X9537954Y5819902D01*
G01X9537954Y5813552D01*
G01X9534652Y5804408D01*
G01X9528556Y5798058D01*
G01X9519412Y5795010D01*
G01X9510014Y5795010D01*
G01X9500616Y5798058D01*
G01X9497568Y5801360D01*
G01X9494520Y5807456D01*
G01X9568180Y5838444D02*
G01X9586722Y5795010D01*
G01X9605264Y5838444D02*
G01X9586722Y5795010D01*
G54D12*
G01X9837420Y4166870D02*
G01X9778238Y4144518D01*
G01X9837420Y4121912D02*
G01X9778238Y4144518D01*
G01X9837420Y4081526D02*
G01X9834626Y4087114D01*
G01X9829038Y4092956D01*
G01X9823450Y4095750D01*
G01X9814814Y4098544D01*
G01X9800844Y4098544D01*
G01X9792462Y4095750D01*
G01X9786620Y4092956D01*
G01X9781032Y4087114D01*
G01X9778238Y4081526D01*
G01X9778238Y4070350D01*
G01X9781032Y4064762D01*
G01X9786620Y4058920D01*
G01X9792462Y4056126D01*
G01X9800844Y4053332D01*
G01X9814814Y4053332D01*
G01X9823450Y4056126D01*
G01X9829038Y4058920D01*
G01X9834626Y4064762D01*
G01X9837420Y4070350D01*
G01X9837420Y4081526D01*
G01X9829038Y4004564D02*
G01X9778238Y4004564D01*
G01X9803638Y4029964D02*
G01X9803638Y3979164D01*
G01X9837420Y3569970D02*
G01X9778238Y3547618D01*
G01X9837420Y3525012D02*
G01X9778238Y3547618D01*
G01X9837420Y3501644D02*
G01X9778238Y3501644D01*
G01X9837420Y3478022D02*
G01X9778238Y3478022D01*
G01X9837420Y3478022D02*
G01X9778238Y3438652D01*
G01X9837420Y3438652D02*
G01X9778238Y3438652D01*
G01X9829038Y3389884D02*
G01X9778238Y3389884D01*
G01X9803638Y3415284D02*
G01X9803638Y3364484D01*
G54D13*
G01X9517380Y3990340D02*
G01X9397238Y3990340D01*
G01X9517380Y3990340D02*
G01X9517380Y3950208D01*
G01X9511538Y3933190D01*
G01X9500108Y3921760D01*
G01X9488678Y3915918D01*
G01X9471660Y3910330D01*
G01X9442958Y3910330D01*
G01X9425940Y3915918D01*
G01X9414510Y3921760D01*
G01X9403080Y3933190D01*
G01X9397238Y3950208D01*
G01X9397238Y3990340D01*
G01X9517380Y3862578D02*
G01X9397238Y3862578D01*
G01X9517380Y3862578D02*
G01X9397238Y3816858D01*
G01X9517380Y3771138D02*
G01X9397238Y3816858D01*
G01X9517380Y3771138D02*
G01X9397238Y3771138D01*
G01X9494520Y3723386D02*
G01X9500108Y3711956D01*
G01X9517380Y3694684D01*
G01X9397238Y3694684D01*
G01X9517380Y3635502D02*
G01X9517380Y3572510D01*
G01X9471660Y3606800D01*
G01X9471660Y3589782D01*
G01X9465818Y3578352D01*
G01X9460230Y3572510D01*
G01X9442958Y3566922D01*
G01X9431528Y3566922D01*
G01X9414510Y3572510D01*
G01X9403080Y3583940D01*
G01X9397238Y3601212D01*
G01X9397238Y3618230D01*
G01X9403080Y3635502D01*
G01X9408668Y3641090D01*
G01X9420098Y3646932D01*
G54D12*
G01X9075420Y4166870D02*
G01X9016238Y4144518D01*
G01X9075420Y4121912D02*
G01X9016238Y4144518D01*
G01X9075420Y4081526D02*
G01X9072626Y4087114D01*
G01X9067038Y4092956D01*
G01X9061450Y4095750D01*
G01X9052814Y4098544D01*
G01X9038844Y4098544D01*
G01X9030462Y4095750D01*
G01X9024620Y4092956D01*
G01X9019032Y4087114D01*
G01X9016238Y4081526D01*
G01X9016238Y4070350D01*
G01X9019032Y4064762D01*
G01X9024620Y4058920D01*
G01X9030462Y4056126D01*
G01X9038844Y4053332D01*
G01X9052814Y4053332D01*
G01X9061450Y4056126D01*
G01X9067038Y4058920D01*
G01X9072626Y4064762D01*
G01X9075420Y4070350D01*
G01X9075420Y4081526D01*
G01X9041638Y4029964D02*
G01X9041638Y3979164D01*
G01X9075420Y3569970D02*
G01X9016238Y3547618D01*
G01X9075420Y3525012D02*
G01X9016238Y3547618D01*
G01X9075420Y3501644D02*
G01X9016238Y3501644D01*
G01X9075420Y3478022D02*
G01X9016238Y3478022D01*
G01X9075420Y3478022D02*
G01X9016238Y3438652D01*
G01X9075420Y3438652D02*
G01X9016238Y3438652D01*
G01X9041638Y3415284D02*
G01X9041638Y3364484D01*
G54D11*
G01X9367520Y4323588D02*
G01X9373616Y4326890D01*
G01X9383014Y4336034D01*
G01X9383014Y4271010D01*
G01X9416288Y4320540D02*
G01X9416288Y4323588D01*
G01X9419336Y4329938D01*
G01X9422384Y4332986D01*
G01X9428480Y4336034D01*
G01X9440926Y4336034D01*
G01X9447276Y4332986D01*
G01X9450324Y4329938D01*
G01X9453372Y4323588D01*
G01X9453372Y4317492D01*
G01X9450324Y4311396D01*
G01X9443974Y4301998D01*
G01X9413240Y4271010D01*
G01X9456420Y4271010D01*
G01X9486646Y4314444D02*
G01X9505188Y4271010D01*
G01X9523730Y4314444D02*
G01X9505188Y4271010D01*
G04 Text End*

G04 PolygonModel Start*
G54D14*
G01X7188200Y1943100D02*
G01X7950200Y1943100D01*
G01X7950200Y1943100D02*
G01X7950200Y1689100D01*
G01X7188200Y1689100D02*
G01X7950200Y1689100D01*
G01X7188200Y1943100D02*
G01X7188200Y1689100D01*
G01X7447044Y1943100D02*
G01X7447044Y1689100D01*
G01X6528816Y6212586D02*
G01X6830568Y6212586D01*
G01X6528816Y6212586D02*
G01X6528816Y5910834D01*
G01X6528816Y5910834D02*
G01X6528816Y4912614D01*
G01X8228584Y6212586D02*
G01X8228584Y5910834D01*
G01X8228584Y5910834D02*
G01X8228584Y4912614D01*
G01X6528816Y4912614D02*
G01X6830568Y4912614D01*
G01X6830568Y4912614D02*
G01X8228584Y4912614D01*
G01X6830568Y6212586D02*
G01X8228584Y6212586D01*
G01X8689086Y4570984D02*
G01X8689086Y4269232D01*
G01X8689086Y4570984D02*
G01X8387334Y4570984D01*
G01X8387334Y4570984D02*
G01X7389114Y4570984D01*
G01X8689086Y2871216D02*
G01X8387334Y2871216D01*
G01X8387334Y2871216D02*
G01X7389114Y2871216D01*
G01X7389114Y4570984D02*
G01X7389114Y4269232D01*
G01X7389114Y4269232D02*
G01X7389114Y2871216D01*
G01X8689086Y4269232D02*
G01X8689086Y2871216D01*
G01X5496100Y1965797D02*
G01X5546100Y1965797D01*
G01X5521101Y1990799D02*
G01X5521099Y1940799D01*
G54D15*
G01X5563100Y2018800D02*
G01X5943100Y2018800D01*
G01X5943100Y2018800D02*
G01X5943100Y1638800D01*
G01X5943100Y1638800D02*
G01X5563100Y1638800D01*
G01X5563100Y1638800D02*
G01X5563100Y2018800D01*
G54D14*
G01X4594400Y1965797D02*
G01X4644400Y1965797D01*
G01X4619401Y1990799D02*
G01X4619399Y1940799D01*
G54D15*
G01X4661400Y2018800D02*
G01X5041400Y2018800D01*
G01X5041400Y2018800D02*
G01X5041400Y1638800D01*
G01X5041400Y1638800D02*
G01X4661400Y1638800D01*
G01X4661400Y1638800D02*
G01X4661400Y2018800D01*
G54D11*
G01X6239581Y2494359D02*
G01X6096086Y2494359D01*
G01X6096086Y2494359D02*
G01X6096086Y2103041D01*
G01X6096086Y2103041D02*
G01X6239581Y2103041D01*
G01X6739819Y2494359D02*
G01X6883314Y2494359D01*
G01X6883314Y2494359D02*
G01X6883314Y2103041D01*
G01X6883314Y2103041D02*
G01X6739819Y2103041D01*
G54D14*
G01X8764016Y6212586D02*
G01X9065768Y6212586D01*
G01X8764016Y6212586D02*
G01X8764016Y5910834D01*
G01X8764016Y5910834D02*
G01X8764016Y4912614D01*
G01X10463784Y6212586D02*
G01X10463784Y5910834D01*
G01X10463784Y5910834D02*
G01X10463784Y4912614D01*
G01X8764016Y4912614D02*
G01X9065768Y4912614D01*
G01X9065768Y4912614D02*
G01X10463784Y4912614D01*
G01X9065768Y6212586D02*
G01X10463784Y6212586D01*
G01X10060686Y4570984D02*
G01X10060686Y4269232D01*
G01X10060686Y4570984D02*
G01X9758934Y4570984D01*
G01X9758934Y4570984D02*
G01X8760714Y4570984D01*
G01X10060686Y2871216D02*
G01X9758934Y2871216D01*
G01X9758934Y2871216D02*
G01X8760714Y2871216D01*
G01X8760714Y4570984D02*
G01X8760714Y4269232D01*
G01X8760714Y4269232D02*
G01X8760714Y2871216D01*
G01X10060686Y4269232D02*
G01X10060686Y2871216D01*

G04 Rect Start*
G01X7179589Y2210511D02*
G01X7179589Y2489505D01*
G01X7755585Y2489505D01*
G01X7755585Y2210511D01*
G01X7179589Y2210511D01*
G01X7954289Y2007311D02*
G01X7954289Y2286305D01*
G01X8530285Y2286305D01*
G01X8530285Y2007311D01*
G01X7954289Y2007311D01*
G01X8652789Y2007311D02*
G01X8652789Y2286305D01*
G01X9228785Y2286305D01*
G01X9228785Y2007311D01*
G01X8652789Y2007311D01*
G01X7006311Y1955089D02*
G01X7006311Y1676095D01*
G01X6430315Y1676095D01*
G01X6430315Y1955089D01*
G01X7006311Y1955089D01*
G01X5962500Y2946400D02*
G01X4762500Y2946400D01*
G01X4762500Y4446400D01*
G01X5962500Y4446400D01*
G01X5962500Y2946400D01*
G01X7334100Y2946400D02*
G01X6134100Y2946400D01*
G01X6134100Y4446400D01*
G01X7334100Y4446400D01*
G01X7334100Y2946400D01*
G04 Rect End*

G04 Circle Start*
G54D17*
G01X6383528Y6223000D02*
G03X6443472Y6223000I29972J0D01*
G03X6383528Y6223000I-29972J0D01*
G01X8669528Y4686300D02*
G03X8729472Y4686300I29972J0D01*
G03X8669528Y4686300I-29972J0D01*
G01X8618728Y6223000D02*
G03X8678672Y6223000I29972J0D01*
G03X8618728Y6223000I-29972J0D01*
G01X10041128Y4686300D02*
G03X10101072Y4686300I29972J0D01*
G03X10041128Y4686300I-29972J0D01*
G04 Circle End*

M02*

