G04 Layer: BottomLayer*
G04 EasyEDA Pro v2.2.32.3, 2024-10-26 20:26:31*
G04 Gerber Generator version 0.3*
G04 Scale: 100 percent, Rotated: No, Reflected: No*
G04 Dimensions in millimeters*
G04 Leading zeros omitted, absolute positions, 3 integers and 5 decimals*
%FSLAX35Y35*%
%MOMM*%
%ADD10C,0.2032*%
%ADD11R,1.7X1.7*%
%ADD12C,1.7*%
%ADD13R,1.7X1.7*%
%ADD14C,1.5748*%
%ADD15R,1.5748X1.5748*%
%ADD16C,1.0*%
%ADD17C,0.61*%
%ADD18C,2.0*%
G75*


G04 Copper Start*
G36*
G01X9306743Y1508055D02*
G01X7750493Y1508055D01*
G01X7919235Y1676797D01*
G03X7922601Y1680286I-96035J96035D01*
G01X9258300Y1680286D01*
G03X9354335Y1720065I0J135814D01*
G01X9913135Y2278865D01*
G03X9952914Y2374900I-96035J96035D01*
G01X9952914Y2946400D01*
G03X9681286Y2946400I-135814J0D01*
G01X9681286Y2431156D01*
G01X9202044Y1951914D01*
G01X7823200Y1951914D01*
G03X7705014Y1883014I0J-135814D01*
G01X7705014Y1912244D01*
G01X7970035Y2177265D01*
G03X8009814Y2273300I-96035J96035D01*
G01X8009814Y2686944D01*
G01X8071677Y2748807D01*
G01X8445500Y2748807D01*
G03X8449599Y2748869I0J135814D01*
G01X8273265Y2572535D01*
G03X8233486Y2476500I96035J-96035D01*
G01X8233486Y2146300D01*
G03X8505114Y2146300I135814J0D01*
G01X8505114Y2420244D01*
G01X8770135Y2685265D01*
G03X8809914Y2781300I-96035J96035D01*
G01X8809914Y5747644D01*
G01X8922535Y5860265D01*
G03X8730465Y6052335I-96035J96035D01*
G01X8578065Y5899935D01*
G03X8538286Y5803900I96035J-96035D01*
G01X8538286Y2983799D01*
G03X8445500Y3020435I-92786J-99178D01*
G01X8015421Y3020435D01*
G03X7919386Y2980656I0J-135814D01*
G01X7777965Y2839235D01*
G03X7738186Y2743200I96035J-96035D01*
G01X7738186Y2329556D01*
G01X7473165Y2064535D01*
G03X7433386Y1968500I96035J-96035D01*
G01X7433386Y1816100D01*
G03X7458049Y1738055I135814J0D01*
G01X7429754Y1738055D01*
G01X7429754Y1894840D01*
G03X7393940Y1930654I-35814J0D01*
G01X7236460Y1930654D01*
G03X7200646Y1894840I0J-35814D01*
G01X7200646Y1738055D01*
G01X6966114Y1738055D01*
G01X6966114Y1754056D01*
G03X6981114Y1816100I-120814J62044D01*
G01X6981114Y2534544D01*
G01X7309635Y2863065D01*
G03X7117565Y3055135I-96035J96035D01*
G01X6749265Y2686835D01*
G03X6709486Y2590800I96035J-96035D01*
G01X6709486Y1841161D01*
G03X6538138Y1924589I-118186J-25061D01*
G03X6499077Y1738055I53162J-108489D01*
G01X6264515Y1738055D01*
G01X5299406Y2703164D01*
G01X5299406Y4446400D01*
G03X5027778Y4446400I-135814J0D01*
G01X5027778Y2646908D01*
G03X5067557Y2550873I135814J0D01*
G01X6110375Y1508055D01*
G01X3916500Y1508055D01*
G01X2757405Y3407137D01*
G01X2757405Y6513303D01*
G01X10885761Y6513303D01*
G01X10885761Y3087073D01*
G01X9306743Y1508055D01*
G37*
%LPC*%
G36*
G01X4655475Y3498852D02*
G03X2983851Y3498852I-835812J0D01*
G03X4655475Y3498852I835812J0D01*
G37*
G36*
G01X7425600Y2228686D02*
G03X7461414Y2264500I0J35814D01*
G01X7461414Y2434500D01*
G03X7425600Y2470314I-35814J0D01*
G01X7255600Y2470314D01*
G03X7219786Y2434500I0J-35814D01*
G01X7219786Y2264500D01*
G03X7255600Y2228686I35814J0D01*
G01X7425600Y2228686D01*
G37*
G36*
G01X8946986Y2146300D02*
G03X9188614Y2146300I120814J0D01*
G03X8946986Y2146300I-120814J0D01*
G37*
%LPD*%
G54D10*
G01X9306743Y1508055D02*
G01X7750493Y1508055D01*
G01X7919235Y1676797D01*
G03X7922601Y1680286I-96035J96035D01*
G01X9258300Y1680286D01*
G03X9354335Y1720065I0J135814D01*
G01X9913135Y2278865D01*
G03X9952914Y2374900I-96035J96035D01*
G01X9952914Y2946400D01*
G03X9681286Y2946400I-135814J0D01*
G01X9681286Y2431156D01*
G01X9202044Y1951914D01*
G01X7823200Y1951914D01*
G03X7705014Y1883014I0J-135814D01*
G01X7705014Y1912244D01*
G01X7970035Y2177265D01*
G03X8009814Y2273300I-96035J96035D01*
G01X8009814Y2686944D01*
G01X8071677Y2748807D01*
G01X8445500Y2748807D01*
G03X8449599Y2748869I0J135814D01*
G01X8273265Y2572535D01*
G03X8233486Y2476500I96035J-96035D01*
G01X8233486Y2146300D01*
G03X8505114Y2146300I135814J0D01*
G01X8505114Y2420244D01*
G01X8770135Y2685265D01*
G03X8809914Y2781300I-96035J96035D01*
G01X8809914Y5747644D01*
G01X8922535Y5860265D01*
G03X8730465Y6052335I-96035J96035D01*
G01X8578065Y5899935D01*
G03X8538286Y5803900I96035J-96035D01*
G01X8538286Y2983799D01*
G03X8445500Y3020435I-92786J-99178D01*
G01X8015421Y3020435D01*
G03X7919386Y2980656I0J-135814D01*
G01X7777965Y2839235D01*
G03X7738186Y2743200I96035J-96035D01*
G01X7738186Y2329556D01*
G01X7473165Y2064535D01*
G03X7433386Y1968500I96035J-96035D01*
G01X7433386Y1816100D01*
G03X7458049Y1738055I135814J0D01*
G01X7429754Y1738055D01*
G01X7429754Y1894840D01*
G03X7393940Y1930654I-35814J0D01*
G01X7236460Y1930654D01*
G03X7200646Y1894840I0J-35814D01*
G01X7200646Y1738055D01*
G01X6966114Y1738055D01*
G01X6966114Y1754056D01*
G03X6981114Y1816100I-120814J62044D01*
G01X6981114Y2534544D01*
G01X7309635Y2863065D01*
G03X7117565Y3055135I-96035J96035D01*
G01X6749265Y2686835D01*
G03X6709486Y2590800I96035J-96035D01*
G01X6709486Y1841161D01*
G03X6538138Y1924589I-118186J-25061D01*
G03X6499077Y1738055I53162J-108489D01*
G01X6264515Y1738055D01*
G01X5299406Y2703164D01*
G01X5299406Y4446400D01*
G03X5027778Y4446400I-135814J0D01*
G01X5027778Y2646908D01*
G03X5067557Y2550873I135814J0D01*
G01X6110375Y1508055D01*
G01X3916500Y1508055D01*
G01X2757405Y3407137D01*
G01X2757405Y6513303D01*
G01X10885761Y6513303D01*
G01X10885761Y3087073D01*
G01X9306743Y1508055D01*
G01X4655475Y3498852D02*
G03X2983851Y3498852I-835812J0D01*
G03X4655475Y3498852I835812J0D01*
G01X7425600Y2228686D02*
G03X7461414Y2264500I0J35814D01*
G01X7461414Y2434500D01*
G03X7425600Y2470314I-35814J0D01*
G01X7255600Y2470314D01*
G03X7219786Y2434500I0J-35814D01*
G01X7219786Y2264500D01*
G03X7255600Y2228686I35814J0D01*
G01X7425600Y2228686D01*
G01X8946986Y2146300D02*
G03X9188614Y2146300I120814J0D01*
G03X8946986Y2146300I-120814J0D01*
G04 Copper End*

G04 Pad Start*
G54D11*
G01X7340600Y2349500D03*
G54D12*
G01X7594600Y2349500D03*
G54D11*
G01X8115300Y2146300D03*
G54D12*
G01X8369300Y2146300D03*
G54D11*
G01X8813800Y2146300D03*
G54D12*
G01X9067800Y2146300D03*
G54D13*
G01X6845300Y1816100D03*
G54D12*
G01X6591300Y1816100D03*
G54D14*
G01X7823200Y1816100D03*
G01X7569200Y1816100D03*
G54D15*
G01X7315200Y1816100D03*
G04 Pad End*

G04 Via Start*
G54D16*
G01X7213600Y2959100D03*
G01X8445500Y2884621D03*
G01X9817100Y2946400D03*
G01X5163592Y4446400D03*
G01X8826500Y5956300D03*
G54D17*
G01X4789405Y2524055D03*
G01X3265405Y4556055D03*
G01X3265405Y5064055D03*
G01X3265405Y5572055D03*
G01X3265405Y6080055D03*
G01X3773405Y2016055D03*
G01X3773405Y2524055D03*
G01X3773405Y4556055D03*
G01X3773405Y5064055D03*
G01X3773405Y5572055D03*
G01X3773405Y6080055D03*
G01X4281405Y2016055D03*
G01X4281405Y2524055D03*
G01X4281405Y4556055D03*
G01X4281405Y5064055D03*
G01X4281405Y5572055D03*
G01X4281405Y6080055D03*
G01X4789405Y3540055D03*
G01X4789405Y4048055D03*
G01X4789405Y5064055D03*
G01X4789405Y5572055D03*
G01X4789405Y6080055D03*
G01X5297405Y2016055D03*
G01X5297405Y5064055D03*
G01X5297405Y5572055D03*
G01X5297405Y6080055D03*
G01X5805405Y2524055D03*
G01X5805405Y3540055D03*
G01X5805405Y4048055D03*
G01X5805405Y5064055D03*
G01X5805405Y5572055D03*
G01X5805405Y6080055D03*
G01X6313405Y3540055D03*
G01X6313405Y4048055D03*
G01X6313405Y5064055D03*
G01X6313405Y5572055D03*
G01X6821405Y3540055D03*
G01X6821405Y4048055D03*
G01X6821405Y4556055D03*
G01X6821405Y5064055D03*
G01X6821405Y5572055D03*
G01X7329405Y3540055D03*
G01X7329405Y4048055D03*
G01X7329405Y5064055D03*
G01X7329405Y5572055D03*
G01X7329405Y6080055D03*
G01X7837405Y2016055D03*
G01X7837405Y3032055D03*
G01X7837405Y3540055D03*
G01X7837405Y4048055D03*
G01X7837405Y4556055D03*
G01X7837405Y5572055D03*
G01X8345405Y3540055D03*
G01X8345405Y5572055D03*
G01X8853405Y2016055D03*
G01X8853405Y2524055D03*
G01X8853405Y3032055D03*
G01X8853405Y3540055D03*
G01X8853405Y4556055D03*
G01X8853405Y5572055D03*
G01X9361405Y4556055D03*
G01X9361405Y5064055D03*
G01X9361405Y5572055D03*
G01X9361405Y6080055D03*
G01X9869405Y6080055D03*
G01X10377405Y3032055D03*
G01X10377405Y3540055D03*
G01X10377405Y4048055D03*
G01X10377405Y4556055D03*
G01X10377405Y5572055D03*
G04 Via End*

G04 Track Start*
G54D18*
G01X6845300Y1816100D02*
G01X6845300Y2590800D01*
G01X7213600Y2959100D01*
G01X7569200Y1816100D02*
G01X7569200Y1968500D01*
G01X7874000Y2273300D01*
G01X7874000Y2743200D01*
G01X8015421Y2884621D01*
G01X8445500Y2884621D01*
G01X7823200Y1816100D02*
G01X9258300Y1816100D01*
G01X9817100Y2374900D02*
G01X9817100Y2946400D01*
G01X9258300Y1816100D02*
G01X9817100Y2374900D01*
G01X7823200Y1816100D02*
G01X7823200Y1772832D01*
G01X7652609Y1602241D01*
G01X5163592Y2646908D02*
G01X5163592Y4446400D01*
G01X7652609Y1602241D02*
G01X6208259Y1602241D01*
G01X5163592Y2646908D01*
G01X8369300Y2146300D02*
G01X8369300Y2476500D01*
G01X8674100Y5803900D02*
G01X8826500Y5956300D01*
G01X8369300Y2476500D02*
G01X8674100Y2781300D01*
G01X8674100Y5803900D01*
G04 Track End*

M02*

