G04 Layer: DrillDrawingLayer*
G04 EasyEDA Pro v2.2.32.3, 2024-10-26 20:26:31*
G04 Gerber Generator version 0.3*
G04 Scale: 100 percent, Rotated: No, Reflected: No*
G04 Dimensions in millimeters*
G04 Leading zeros omitted, absolute positions, 3 integers and 5 decimals*
%FSLAX35Y35*%
%MOMM*%
%AMIconRect*4,1,4,0.2,-0.2,-0.2,-0.2,-0.2,0.2,0.2,0.2,0.2,-0.2,0*4,0,4,0.166667,-0.166667,0.166667,0.166667,-0.166667,0.166667,-0.166667,-0.166667,0.166667,-0.166667,0*%
%AMIconTriangle*4,1,3,-0.242567,0.171767,0.242567,0.171767,0,-0.2706,-0.242567,0.171767,0*4,0,3,-0.189767,0.1386,0,-0.1953,0.190167,0.1386,-0.189767,0.1386,0*%
%AMIconStar6*4,1,12,0.0862,0.1492,0.213233,0.123367,0.172367,0,0.213233,-0.1229,0.0862,-0.148733,0,-0.245767,-0.085767,-0.148733,-0.213267,-0.1229,-0.171933,0,-0.213267,0.1229,-0.085767,0.1492,0,0.245767,0.0862,0.1492,0*4,0,12,-0.000333,0.195333,-0.064333,0.122667,-0.169667,0.097667,-0.138333,-0.005333,-0.169667,-0.098,-0.064333,-0.122667,-0.000333,-0.195667,0.064333,-0.122667,0.169667,-0.098,0.138667,0.005,0.169667,0.098,0.064333,0.122333,-0.000333,0.195333,0*%
%ADD10IconRect*%
%ADD11C,0.44X0.373333*%
%ADD12IconTriangle*%
%ADD13IconStar6*%
G75*


G04 Drill Drawing Start*
G54D10*
G01X7315200Y1816100D03*
G01X7569200Y1816100D03*
G01X7823200Y1816100D03*
G54D11*
G01X5163592Y4446400D03*
G01X7213600Y2959100D03*
G01X8445500Y2884621D03*
G01X8826500Y5956300D03*
G01X9817100Y2946400D03*
G54D12*
G01X6591300Y1816100D03*
G01X6845300Y1816100D03*
G01X7340600Y2349500D03*
G01X7594600Y2349500D03*
G01X8115300Y2146300D03*
G01X8369300Y2146300D03*
G01X8813800Y2146300D03*
G01X9067800Y2146300D03*
G54D13*
G01X3265405Y4556055D03*
G01X3265405Y5064055D03*
G01X3265405Y5572055D03*
G01X3265405Y6080055D03*
G01X3773405Y4556055D03*
G01X3773405Y5064055D03*
G01X3773405Y5572055D03*
G01X3773405Y6080055D03*
G01X3773405Y2016055D03*
G01X3773405Y2524055D03*
G01X4281405Y4556055D03*
G01X4281405Y5064055D03*
G01X4281405Y5572055D03*
G01X4281405Y6080055D03*
G01X4281405Y2016055D03*
G01X4281405Y2524055D03*
G01X4789405Y2524055D03*
G01X4789405Y4048055D03*
G01X4789405Y5064055D03*
G01X4789405Y5572055D03*
G01X4789405Y6080055D03*
G01X4789405Y3540055D03*
G01X5297405Y5064055D03*
G01X5297405Y5572055D03*
G01X5297405Y6080055D03*
G01X5297405Y2016055D03*
G01X5805405Y4048055D03*
G01X5805405Y5064055D03*
G01X5805405Y5572055D03*
G01X5805405Y6080055D03*
G01X5805405Y2524055D03*
G01X5805405Y3540055D03*
G01X6313405Y4048055D03*
G01X6313405Y5064055D03*
G01X6313405Y5572055D03*
G01X6313405Y3540055D03*
G01X6821405Y3540055D03*
G01X6821405Y4048055D03*
G01X6821405Y4556055D03*
G01X6821405Y5064055D03*
G01X6821405Y5572055D03*
G01X7329405Y3540055D03*
G01X7329405Y4048055D03*
G01X7329405Y5064055D03*
G01X7329405Y5572055D03*
G01X7329405Y6080055D03*
G01X7837405Y2016055D03*
G01X7837405Y3032055D03*
G01X7837405Y3540055D03*
G01X7837405Y4048055D03*
G01X7837405Y4556055D03*
G01X7837405Y5572055D03*
G01X8345405Y3540055D03*
G01X8345405Y5572055D03*
G01X8853405Y2016055D03*
G01X8853405Y2524055D03*
G01X8853405Y3032055D03*
G01X8853405Y3540055D03*
G01X8853405Y4556055D03*
G01X8853405Y5572055D03*
G01X9361405Y4556055D03*
G01X9361405Y5064055D03*
G01X9361405Y5572055D03*
G01X9361405Y6080055D03*
G01X9869405Y6080055D03*
G01X10377405Y3032055D03*
G01X10377405Y3540055D03*
G01X10377405Y4048055D03*
G01X10377405Y4556055D03*
G01X10377405Y5572055D03*
G04 Drill Drawing End*

M02*

