G04 Layer: TopPasteMaskLayer*
G04 EasyEDA Pro v2.2.32.3, 2024-10-26 20:26:31*
G04 Gerber Generator version 0.3*
G04 Scale: 100 percent, Rotated: No, Reflected: No*
G04 Dimensions in millimeters*
G04 Leading zeros omitted, absolute positions, 3 integers and 5 decimals*
%FSLAX35Y35*%
%MOMM*%
%ADD10O,5.7023X2.6035*%
%ADD11O,2.6035X5.7023*%
%ADD12O,1.8X4.0*%
%ADD13R,0.6X2.99999*%
%ADD14R,1.1X2.99999*%
G75*


G04 PolygonModel Start*
G36*
G01X6247201Y2461499D02*
G01X6247201Y2367453D01*
G01X6237201Y2357453D01*
G01X6213594Y2357453D01*
G01X6203594Y2347453D01*
G01X6203594Y2249947D01*
G01X6213594Y2239947D01*
G01X6237201Y2239947D01*
G01X6247201Y2229947D01*
G01X6247201Y2135901D01*
G01X6237201Y2125901D01*
G01X6128946Y2125901D01*
G01X6118946Y2135901D01*
G01X6118946Y2461499D01*
G01X6128946Y2471499D01*
G01X6237201Y2471499D01*
G01X6247201Y2461499D01*
G37*
G36*
G01X6732199Y2461499D02*
G01X6732199Y2367453D01*
G01X6742199Y2357453D01*
G01X6765806Y2357453D01*
G01X6775806Y2347453D01*
G01X6775806Y2249947D01*
G01X6765806Y2239947D01*
G01X6742199Y2239947D01*
G01X6732199Y2229947D01*
G01X6732199Y2135901D01*
G01X6742199Y2125901D01*
G01X6850454Y2125901D01*
G01X6860454Y2135901D01*
G01X6860454Y2461499D01*
G01X6850454Y2471499D01*
G01X6742199Y2471499D01*
G01X6732199Y2461499D01*
G37*

G04 Pad Start*
G54D10*
G01X6603746Y5962650D03*
G01X6603746Y5202682D03*
G01X8153654Y5202682D03*
G01X8153654Y5962650D03*
G54D11*
G01X8439150Y4496054D03*
G01X7679182Y4496054D03*
G01X7679182Y2946146D03*
G01X8439150Y2946146D03*
G54D12*
G01X4889496Y2946400D03*
G01X5839496Y2946400D03*
G01X5837500Y4446400D03*
G01X4912411Y4446400D03*
G01X5166411Y4446400D03*
G01X6261096Y2946400D03*
G01X7211096Y2946400D03*
G01X7209100Y4446400D03*
G01X6284011Y4446400D03*
G01X6538011Y4446400D03*
G54D13*
G01X5873090Y1828808D03*
G54D14*
G01X5753100Y1828808D03*
G54D13*
G01X5633110Y1828808D03*
G01X4971390Y1828808D03*
G54D14*
G01X4851400Y1828808D03*
G54D13*
G01X4731410Y1828808D03*
G54D10*
G01X8838946Y5962650D03*
G01X8838946Y5202682D03*
G01X10388854Y5202682D03*
G01X10388854Y5962650D03*
G54D11*
G01X9810750Y4496054D03*
G01X9050782Y4496054D03*
G01X9050782Y2946146D03*
G01X9810750Y2946146D03*
G04 Pad End*

M02*

