G04 Layer: TopSolderMaskLayer*
G04 EasyEDA Pro v2.2.32.3, 2024-10-26 20:26:31*
G04 Gerber Generator version 0.3*
G04 Scale: 100 percent, Rotated: No, Reflected: No*
G04 Dimensions in millimeters*
G04 Leading zeros omitted, absolute positions, 3 integers and 5 decimals*
%FSLAX35Y35*%
%MOMM*%
%AMRoundRect*1,1,$1,$2,$3*1,1,$1,$4,$5*1,1,$1,0-$2,0-$3*1,1,$1,0-$4,0-$5*20,1,$1,$2,$3,$4,$5,0*20,1,$1,$4,$5,0-$2,0-$3,0*20,1,$1,0-$2,0-$3,0-$4,0-$5,0*20,1,$1,0-$4,0-$5,$2,$3,0*4,1,4,$2,$3,$4,$5,0-$2,0-$3,0-$4,0-$5,$2,$3,0*%
%ADD10RoundRect,0.09654X-0.85273X0.85273X0.85273X0.85273*%
%ADD11C,1.802*%
%ADD12RoundRect,0.09654X0.85273X-0.85273X-0.85273X-0.85273*%
%ADD13C,1.6768*%
%ADD14RoundRect,0.09615X-0.79032X0.79032X0.79032X0.79032*%
%ADD15O,5.7023X2.6035*%
%ADD16O,2.6035X5.7023*%
%ADD17O,1.902X4.102*%
%ADD18RoundRect,0.08752X-0.30625X1.50625X0.30625X1.50625*%
%ADD19RoundRect,0.09233X-0.55385X1.50384X0.55385X1.50384*%
%ADD20RoundRect,0.09465X0.64474X-1.73147X-0.64474X-1.73147*%
G75*


G04 Pad Start*
G54D10*
G01X7340600Y2349500D03*
G54D11*
G01X7594600Y2349500D03*
G54D10*
G01X8115300Y2146300D03*
G54D11*
G01X8369300Y2146300D03*
G54D10*
G01X8813800Y2146300D03*
G54D11*
G01X9067800Y2146300D03*
G54D12*
G01X6845300Y1816100D03*
G54D11*
G01X6591300Y1816100D03*
G54D13*
G01X7823200Y1816100D03*
G01X7569200Y1816100D03*
G54D14*
G01X7315200Y1816100D03*
G54D15*
G01X6603746Y5962650D03*
G01X6603746Y5202682D03*
G01X8153654Y5202682D03*
G01X8153654Y5962650D03*
G54D16*
G01X8439150Y4496054D03*
G01X7679182Y4496054D03*
G01X7679182Y2946146D03*
G01X8439150Y2946146D03*
G54D17*
G01X4889496Y2946400D03*
G01X5839496Y2946400D03*
G01X5837500Y4446400D03*
G01X4912411Y4446400D03*
G01X5166411Y4446400D03*
G01X6261096Y2946400D03*
G01X7211096Y2946400D03*
G01X7209100Y4446400D03*
G01X6284011Y4446400D03*
G01X6538011Y4446400D03*
G54D18*
G01X5873090Y1828808D03*
G54D19*
G01X5753100Y1828808D03*
G54D18*
G01X5633110Y1828808D03*
G01X4971390Y1828808D03*
G54D19*
G01X4851400Y1828808D03*
G54D18*
G01X4731410Y1828808D03*
G54D20*
G01X6183071Y2298700D03*
G01X6796329Y2298700D03*
G54D15*
G01X8838946Y5962650D03*
G01X8838946Y5202682D03*
G01X10388854Y5202682D03*
G01X10388854Y5962650D03*
G54D16*
G01X9810750Y4496054D03*
G01X9050782Y4496054D03*
G01X9050782Y2946146D03*
G01X9810750Y2946146D03*
G04 Pad End*

M02*

